<svg xmlns="http://www.w3.org/2000/svg" data-name="Layer 1" viewBox="0 0 512 512"><path d="M512 32.29v-15a17.52 17.52 0 0 0-17.5-17.5h-477A17.52 17.52 0 0 0 0 17.29v15a17.52 17.52 0 0 0 16 17.43v85.15a17.51 17.51 0 0 0-16 17.42v15a17.52 17.52 0 0 0 16 17.43v85.15a17.51 17.51 0 0 0-16 17.42v15a17.52 17.52 0 0 0 16 17.43V497H7.5a7.5 7.5 0 0 0 0 15h497a7.5 7.5 0 0 0 0-15H496V319.72a17.52 17.52 0 0 0 16-17.43v-15a17.51 17.51 0 0 0-16-17.42v-85.15a17.52 17.52 0 0 0 16-17.43v-15a17.51 17.51 0 0 0-16-17.42V49.72a17.52 17.52 0 0 0 16-17.43ZM248.5 497h-72V394.84h72Zm87 0h-72V394.84h72ZM350 379.84H162a.51.51 0 0 1-.5-.5v-14a.5.5 0 0 1 .5-.5h188a.5.5 0 0 1 .5.5v14a.51.51 0 0 1-.5.5ZM481 497H350.51V394.81a15.51 15.51 0 0 0 15-15.47v-14a15.52 15.52 0 0 0-15.5-15.5H162a15.52 15.52 0 0 0-15.5 15.5v14a15.51 15.51 0 0 0 15 15.47V497H31V319.79h450Zm16-209.71v15a2.5 2.5 0 0 1-2.5 2.5h-477a2.5 2.5 0 0 1-2.5-2.5v-15a2.5 2.5 0 0 1 2.5-2.5h477a2.5 2.5 0 0 1 2.5 2.5Zm-466-17.5v-85h78v85Zm93 0v-85h78v85Zm93 0v-85h78v85Zm93 0v-85h78v85Zm93 0v-85h78v85Zm94-117.5v15a2.5 2.5 0 0 1-2.5 2.5h-477a2.5 2.5 0 0 1-2.5-2.5v-15a2.5 2.5 0 0 1 2.5-2.5h477a2.5 2.5 0 0 1 2.5 2.5Zm-466-17.5v-85h78v85Zm93 0v-85h78v85Zm93 0v-85h78v85Zm93 0v-85h78v85Zm93 0v-85h78v85Zm91.5-100h-477a2.5 2.5 0 0 1-2.5-2.5v-15a2.5 2.5 0 0 1 2.5-2.5h477a2.5 2.5 0 0 1 2.5 2.5v15a2.5 2.5 0 0 1-2.5 2.5ZM56.05 475.29H136a7.5 7.5 0 0 0 7.5-7.5v-49.23a7.5 7.5 0 0 0-7.5-7.5H56.05a7.5 7.5 0 0 0-7.5 7.5v49.23a7.5 7.5 0 0 0 7.5 7.5Zm7.5-49.23h64.9v34.23h-64.9Zm312.5 49.23H456a7.5 7.5 0 0 0 7.5-7.5v-49.23a7.5 7.5 0 0 0-7.5-7.5h-79.9a7.5 7.5 0 0 0-7.5 7.5v49.23a7.5 7.5 0 0 0 7.45 7.5Zm7.5-49.23h64.9v34.23h-64.9Z"></path></svg>