<svg xmlns="http://www.w3.org/2000/svg" viewBox="0 0 64 64"><path d="M61 38H55.163l-5.407-1.8L48 31.808V28.5a4.49 4.49 0 0 0-4.007-4.45c0-.137.007-.274.007-.411V9a1 1 0 0 0-.713-.958l-20-6a1 1 0 0 0-.574 0l-20 6A1 1 0 0 0 2 9V23.639c0 .464.031.922.048 1.383h0v0c.025.675.063 1.346.123 2.013.01.114.024.221.035.333A36.937 36.937 0 0 0 22.553 56.9a1 1 0 0 0 .894 0 37.375 37.375 0 0 0 4.322-2.546 4.036 4.036 0 0 0 1.167 1.076A4 4 0 0 0 32 62H49a1.006 1.006 0 0 0 .555-.168L55.3 58H61a1 1 0 0 0 1-1V39A1 1 0 0 0 61 38zM39.357 33.087L40.523 36h-5.81a25.927 25.927 0 0 0 3.28-12.454L42 22.344v1.295c0 .214-.007.427-.011.641A4.493 4.493 0 0 0 39 28.5v2.729A4.991 4.991 0 0 0 39.357 33.087zM25 40a3.981 3.981 0 0 0 1.1 2.743c-.371.27-.735.55-1.118.8L23 44.811 21.022 43.54a23.909 23.909 0 0 1-9.591-12.025l24.54-7.362A23.923 23.923 0 0 1 32.381 36H29A4 4 0 0 0 25 40zM4.543 29.737c-.008-.05-.017-.1-.025-.148L8.492 28.4c.118.6.261 1.2.421 1.786l-4.031 1.21C4.75 30.822 4.641 30.275 4.543 29.737zM4.082 25.72l3.955-1.187c.028.627.074 1.25.146 1.868L4.237 27.585c-.01-.09-.018-.179-.028-.269C4.158 26.8 4.112 26.277 4.082 25.72zM36 14.056l-26 7.8V14.705L23.034 10.05 36 13.754zm0 2.088v1.912L10.136 25.815q-.094-.932-.118-1.876zm6 2.2v1.912l-4 1.2V19.544zm0-2.088l-4 1.2V15.544l4-1.2zM10.416 27.819l16.272-4.881L36 20.144v1.912L10.828 29.608C10.67 29.018 10.529 28.423 10.416 27.819zM4 9.744l19-5.7 19 5.7v2.512l-4 1.2V13a1 1 0 0 0-.725-.961l-14-4a.989.989 0 0 0-.611.019l-14 5A1 1 0 0 0 8 14v8.456l-4 1.2V9.744zM23 54.878A34.961 34.961 0 0 1 5.346 33.34l4.167-1.25A25.892 25.892 0 0 0 19.94 45.222l2.519 1.619a1 1 0 0 0 1.082 0l2.519-1.619.026-.017a3.953 3.953 0 0 0 1.853 4.222A3.988 3.988 0 0 0 27 52a3.806 3.806 0 0 0 .028.416A35.224 35.224 0 0 1 23 54.878zM48.7 60H32a2 2 0 0 1-2-2 1.981 1.981 0 0 1 1.834-1.979 1.021 1.021 0 0 0 .915-1.06 1 1 0 0 0-1-.961H31a2 2 0 0 1 0-4 1 1 0 0 0 0-2H30a2 2 0 0 1 0-4 1 1 0 0 0 0-2H29a2 2 0 0 1 0-4H42a1 1 0 0 0 .929-1.372l-1.714-4.284A2.977 2.977 0 0 1 41 31.229V28.5a2.5 2.5 0 0 1 5 0V32a1.012 1.012 0 0 0 .071.372l2 5a1.006 1.006 0 0 0 .613.577L54 39.721V56.465zM60 56H56V40h4zM54.62 14.84L53.253 16.3a14.915 14.915 0 0 1 1.285 1.364l1.538-1.279A16.993 16.993 0 0 0 54.62 14.84zM60 27.249q0-.588-.04-1.165l-1.995.135q.034.51.035 1.03c0 .283-.008.565-.024.844l2 .115Q60 27.731 60 27.249zM52.985 13.489a17.078 17.078 0 0 0-1.793-1.14L50.227 14.1a15.028 15.028 0 0 1 1.581 1z"></path><path d="M59.724 30.314l-1.968-.358a14.744 14.744 0 0 1-.45 1.817l1.906.6A16.8 16.8 0 0 0 59.724 30.314zM49.27 11.442a16.839 16.839 0 0 0-2.021-.658l-.5 1.937a15.058 15.058 0 0 1 1.782.58zM56.125 34.515l1.75.97c.2-.367.4-.743.571-1.128l-1.816-.836Q56.4 34.028 56.125 34.515zM55.645 19.176a15.127 15.127 0 0 1 .908 1.636l1.806-.858a16.915 16.915 0 0 0-1.03-1.856zM57.25 22.549a15.007 15.007 0 0 1 .472 1.811l1.963-.381a16.778 16.778 0 0 0-.536-2.056zM46.986 21.072A6.354 6.354 0 0 1 51 27h2a8.343 8.343 0 0 0-5.271-7.785l-.357-.143-.744 1.856z"></path></svg>