<!-- icon666.com - MILLIONS vector ICONS FREE --><svg viewBox="0 -60 436.19526 436" xmlns="http://www.w3.org/2000/svg"><path d="m131.917969 188.011719 2-.300781c.296875-.101563.699219-.101563 1-.101563h2c.296875 0 .699219 0 1 .101563l2 .300781c.398437 0 .699219.097656 1 .199219l2 .5c.199219.101562.398437.101562.597656.199218l1.902344.601563c.199219.097656.5.199219.699219.300781l1.898437.796875c.199219.101563.402344.203125.601563.300781l1.898437 1c.300781.101563.601563.300782.902344.5l1.699219 1.101563c.199218.097656.398437.199219.597656.398437l1.703125 1.300782c.296875.199218.5.398437.796875.699218l1.5 1.5c.203125.101563.300781.300782.5.5l1.300781 1.601563c.101563.199219.199219.398437.402344.597656l1.199219 1.703125c.199218.199219.398437.597656.597656.898438l1 1.800781c.101562.199219.203125.398437.300781.597656l.902344 1.902344c.097656.398437.296875.699219.398437 1.097656l.601563 1.902344v.097656l.597656 1.902344c.101563.300781.101563.5.199219.800781l.402344 2c0 .199219.097656.398438.097656.699219l1.800781-.199219c.199219-.101562.300781-.101562.5-.101562l2-.101563h.5 2c.300781 0 .699219 0 1 .101563l2 .300781c.402344 0 .699219.097656 1 .199219l2 .5c.199219 0 .300781 0 .5.101562l2 .597656c.402344.101563.902344.300782 1.300781.5l1.699219.902344c.199219.097656.402344.199219.601563.296875l1.800781 1.101563c.296875.199218.5.398437.796875.601562l1.601562 1.199219c.101563.097656.199219.199219.300782.300781l1.597656 1.296875.800781.800781 1.300781 1.5c.300782.199219.5.5.699219.800782l1.199219 1.699218c.101562.199219.300781.402344.402344.601563l1 1.699219c.097656.199218.199218.398437.300781.601562l.898437 1.898438c.101563.199218.199219.398437.300782.699218l.699218 1.902344c.101563.296875.199219.597656.300782 1l.5 2c0 .199219 0 .296875.097656.5l.402344 2c0 .097656.097656.296875.097656.5l.300781 2.199219c.101563.300781.101563.597656.101563.898437v2.101563c5.699218-.300781 11.398437.898437 16.597656 3.898437 11.601562 6.699219 17.300781 20.199219 14.300781 33.101563 0 .300781-.097656.597656-.199219.898437-.699218 2.601563-1.800781 5-3.199218 7.199219-.199219.5-.5 1-.902344 1.5l-.699219.902344 5 3.199219.101563.101562 1.300781.898438.898437.5 1.101563.398437.796875.203125 1.203125.199219 1.199219.097656 1.300781-.097656 1.097656-.199219 1.101563-.300781 1.300781-.5 1.097656-.5 1.199219-.699219 1.101562-.800781.800782-.699219.800781-.902344 1.097656-1.398437.699219-1 .5-1 .5-1.300781.402344-1.199219.398437-2.601563v-1.300781l-.097656-1.296875-.203125-.902344-.398438-1.199218-.398437-1.101563-.5-.898437-.703125-1.101563-.597656-.796875-.699219-.703125-11.300781-7.597656c-3.902344-2.601563-4.902344-7.902344-2.300782-11.699219 2.601563-3.902344 7.898438-4.902344 11.699219-2.300781l11.800781 8 1.601563 1 1.398437.800781 1.5.699219 1.5.5 1.5.398437 1.300782.199219 1.5.101563h1.699218l1.398438-.101563 1.101562-.199219 1.300782-.398437 1.199218-.5 1.101563-.601563 1.097656-.699218 1.101563-.800782.699218-.597656.898438-1 .703125-.902344.398437-.800781.5-1.296875.398438-1.101562.203125-1.101563.199219-1.597656.097656-1.300781-.097656-1.199219-.199219-1.101563-.402344-1.398437-.597656-1.601563-.601563-1.398437-.601562-1.101563-.898438-1.300781-1.101562-1.398437-1.097656-1.199219-1.199219-1.101563-1.300781-1-17.800782-12.597656c-3.800781-2.703125-4.699218-8-2-11.800781 2.699219-3.800781 8-4.699219 11.800782-2l27.199218 19.300781 1.300782.796875 1 .601563 1 .398437 1.199218.300781 1.300782.199219 1.097656.101563 1.300781-.101563 1.300781-.199219 1-.300781 1.300782-.5 1.398437-.597656 1.101563-.601563 1-.699218 1-.898438.800781-.902344.898437-1.097656.699219-1.101562.601563-1.101563.5-1.296875.398437-1.203125.199219-1.097656.101562-1.300781v-1.300782l-.199218-1.300781-.300782-1.296875-.300781-1-.597656-1.203125-.601563-1.097656-.601562-.902344-.796875-.898437-.800781-.800782-.800782-.597656-29.300781-20.703125c-3.800781-2.699219-4.699219-8-2-11.796875 2.699219-3.800781 8-4.703125 11.800781-2l29.199219 20.699219c.101563 0 .199219.097656.300781.199219l.101563.101562 7.796875 5.5 1.402344.898438 1.5.800781 1.300781.597656 1.296875.5 1.101562.300781 1.5.199219 1.601563.101563h1.296875l1.101562-.199219 1.300782-.300781 1.300781-.398438 1.097656-.402344.800781-.398437 2-1.5.601563-.699219.898437-1.101562.601563-.800782.5-1 .398437-1.097656.300782-1.101562.199218-1.199219.398438-1.199219-.097656-1.300781-.199219-1.300781-.300781-1.199219-.5-1.402344-.5-1.097656-.699219-1.300781-.800781-1.300782-.300782-.398437c-.199218-.300781-.5-.601563-.699218-.902344l-.800782-.796875-1.101562-1-1.296875-1-119.300781-84.5c-3.199219-2.300781-7.300782-2.203125-10.300782.199219l-21.300781 20.199219c-4.398437 4.601562-9.898437 8.199218-16 10.601562-.199219.097656-.398437.199219-.597656.296875-2.902344 1.101563-6 1.601563-9 1.601563-7.601563 0-15-3.398438-19.902344-9.601563-6.800781-8.5-7.300781-20.398437-1.398437-29.699219l17.800781-29.097656c.796875-1.300781 1.699219-2.601562 2.699219-3.703125-5 0-10 .203125-15 .601563-1.300782.199218-2.699219.300781-4 .300781-2.402344 0-4.800782-.300781-7.101563-.902344l-71.300781 100.800781c1.902344 3.101563 3.402344 6.699219 4.101562 10.402344.800782 2.597656 1.699219 5.097656 2.699219 7.597656l.101563-.097656s0 0 .097656-.101562c0 0 0 0 .101562-.101563l1.300782-1.699219c.097656-.199218.300781-.398437.5-.597656l2.5-1.402344c.097656-.199218.300781-.300781.5-.5l1.597656-1.398437c.101562-.199219.203125-.300781.402344-.402344l1.800781-1.398437c.097656-.101563.296875-.300782.5-.398438l1.796875-1.203125c.203125-.097656.402344-.199219.703125-.398437l1.796875-1c.300781-.199219.601562-.300782 1-.5l1.902344-.699219c.199218-.101563.398437-.101563.597656-.199219l2-.601562c.300781-.101563.601562-.101563.902344-.199219l2-.402344c.199218 0 .300781-.097656.5-.097656l2-.300781c.300781-.101563.5-.101563.800781-.101563l2-.097656c.296875 0 .597656 0 1 .097656l1.898437.203125c.199219 0 .5 0 .699219.097656l2 .402344c.199219 0 .402344 0 .601563.097656l1.898437.5c.402344.101563.699219.199219 1.101563.402344l1.800781.699219c.199219.097656.5.199219.796875.398437l1.800781 1c.199219.101563.5.300782.800781.5l1.601563 1.101563c.199219.097656.296875.199219.398437.300781l1.601563 1.199219c.296875.199219.5.398437.796875.699219l1.5 1.5c.101562.199218.300781.398437.5.601562l1.203125 1.5c.097656.097656.296875.296875.398437.5l1.199219 1.699219c.199219.300781.402344.597656.601563.898437l1 1.800782c.097656.199218.300781.5.398437.800781l.699219 1.800781c0 .199219.101562.398438.203125.597656l.597656 1.902344c.101563.296875.199219.597656.300781 1l.300782 1.796875c.097656 0 .199218-.097656.300781-.097656l2-.402344c.199219 0 .296875-.097656.5-.097656zm303.398437-23.199219c3.398438 11.699219-3.300781 24-16 27.097656l-22.898437 6.699219s-.101563.101563-.203125.101563c-2 .601562-4 .898437-6 .898437-3.597656 0-7.199219-.898437-10.5-2.699219-3.699219-2-6.699219-5-8.699219-8.597656-2.199219.5-4.597656.796875-6.898437 1.097656l.199218.800782c.101563.300781.101563.5.199219.800781l.300781 2c0 .199219.101563.398437.101563.699219l.097656 2.101562v.898438l-.097656 2c-.101563.398437-.101563.699218-.203125 1.101562l-.398438 1.898438c0 .199218 0 .300781-.101562.5l-.5 1.898437c-.097656.402344-.199219.703125-.398438 1.101563l-.699218 1.800781c0 .199219-.101563.300781-.199219.5l-.902344 1.800781c-.199219.398438-.398437.796875-.699219 1.199219l-1.101562 1.597656c-.097656.203125-.199219.300781-.296875.402344l-1.203125 1.597656c-.199219.203125-.296875.402344-.5.601563l-1.296875 1.5c-.300781.398437-.703125.699218-1.101563 1l-3.199218 2.5c-.402344.300781-.800782.601562-1.199219.800781l-1.800781 1c-.300782.097656-.601563.300781-.902344.398437l-1.796875.699219c-.203125 0-.402344.101563-.601563.203125l-1.898437.597656c-.203125.101563-.402344.101563-.601563.199219l-2 .5c-.300781.101563-.601562.101563-.898437.203125l-2 .296875c-.300781.101563-.703125.101563-1 .101563h-2c-.203125 0-.300781 0-.5 0l-2-.101563c-.203125 0-.300781-.097656-.5-.097656l-2.203125-.300781c-.097656 0-.199219-.101563-.398438-.101563l-.101562 1.800781c0 .300782 0 .699219-.097656 1l-.402344 2c-.097656.402344-.199219.699219-.296875 1.101563l-.601563 1.898437c-.101562.199219-.101562.300782-.199218.5l-.699219 1.902344c-.101563.296875-.203125.5-.402344.796875l-1 1.902344c-.097656.300781-.300781.597656-.5.898437l-1.199219 1.699219c-.101562.203125-.199218.300781-.300781.5l-1.300781 1.703125c-.097656.199219-.296875.398438-.5.597656l-1.398438 1.5c-.199218.199219-.398437.5-.699218.699219l-1.601563 1.402344c-.199219.199219-.398437.300781-.597656.5l-1.703125 1.199219c-.296875.199218-.597656.398437-.898438.601562l-1.800781 1c-.199219.097656-.398437.199219-.597656.296875l-1.902344.902344c-.097656.097656-.199219.097656-.398437.199219l-1.902344.699218c-.296875.101563-.597656.199219-.898438.300782l-1.898437.5c-.402344.101562-.703125.101562-1.101563.199218l-2 .300782c-.199218.101562-.300781.101562-.5.101562l-2 .097656c-.199218 0-.300781 0-.5 0-.199218 0-.300781 0-.5 0l-.898437-.097656.097656 1.097656v1l-.097656 2c0 .199219-.101563.300782-.101563.5l-.300781 2c0 .199219 0 .300782-.097656.5l-.402344 2c-.097656.5-.199219 1-.398437 1.5l-.699219 1.902344c0 .097656-.101563.097656-.101563.199219l-.699218 1.800781c-.101563.296875-.199219.597656-.402344.898438l-1 1.800781c-.296875.398437-.5.800781-.796875 1.199219l-1.203125 1.601562c-.097656.097656-.199219.199219-.296875.296875l-1.300781 1.601563c-.199219.300781-.402344.5-.699219.800781l-1.5 1.300781c-.203125.296875-.5.5-.800781.699219l-1.699219 1.199219c-.101563.101562-.300781.199218-.402344.300781l-1.699219 1.097656c-.300781.203125-.5.300781-.800781.5l-1.898437 1c-.199219.203125-.5.300781-.800782.402344l-1.898437.699219c-.203125.101562-.402344.101562-.601563.199218l-2 .601563c-.300781.097656-.601562.097656-.898437.199219l-2 .398437c-.300781 0-.601563.101563-1 .101563l-2.203125.101562c-.199219 0-.296875 0-.5 0h-1.796875v.296875.5 2c0 .300781 0 .703125-.101563 1l-.300781 2c0 .203125 0 .300781-.097656.5l-.402344 2c-.097656.300781-.199219.601563-.300781 1l-.597656 1.902344c-.101563.199219-.101563.300781-.199219.5l-.703125 1.898437c-.097656.199219-.199219.5-.398438.800782l-1 1.898437c-.199218.402344-.398437.703125-.699218 1.101563l-1.199219 1.699218c-.101563.101563-.203125.199219-.300781.300782l-1.300782 1.699218c0 .101563-.101562.199219-.199218.300782l-1.300782 1.601562c-.300781.398438-.601562.699219-1 1l-1.601562 1.296875c-.097656.101563-.296875.203125-.5.402344l-1.699219 1.199219c-.199219.101562-.398437.300781-.597656.398437l-1.800781 1.101563c-.300782.101562-.5.300781-.800782.398437l-1.800781.902344c-.199219.097656-.398437.199219-.597656.300781l-1.902344.699219c-.199219.097656-.398437.097656-.597656.199219l-2 .601562c-.402344.097656-.800781.199219-1.300781.296875l-1.902344.300781c-.199219 0-.398438.101563-.597656.101563l-2 .097656c-.199219 0-.300782 0-.5 0-.101563 0-.300782 0-.5 0l-1.902344-.097656c-.199219 0-.296875-.101563-.5-.101563l-2-.300781c-.398438 0-.796875-.097656-1.199219-.199219l-1.800781-.5c-.296875-.097656-.5-.199218-.796875-.300781l-1.902344-.699219c-.300781-.097656-.5-.199218-.800781-.398437l-1.699219-.902344c-.300781-.199219-.5-.296875-.800781-.5l-1.699219-1.097656-7-4.402344c-5.398437 4.300781-12.097656 6.601563-18.898437 6.601563-5.300782 0-10.800782-1.5-15.699219-4.398438-6.800781-4-11.5-10.300781-13.601563-17.402344 0 .101563-.101562.101563-.101562.101563l-2 .699219c-.097656.101562-.199219.101562-.398438.199218l-2 .601563c-.300781.097656-.601562.097656-.898437.199219l-2 .398437c-.203125 0-.300781.101563-.5.101563l-2 .300781c-.300781.097656-.703125.097656-1 .097656h-2.203125c-.296875 0-.699219 0-1-.097656l-2-.300781c-.199219 0-.398438 0-.597656-.101563l-1.902344-.398437c-.398438-.101563-.699219-.199219-1-.300782l-1.898438-.597656c-.199218-.101562-.398437-.203125-.699218-.300781l-1.902344-.800781c-.199219-.101563-.5-.199219-.699219-.300782l-1.800781-1c-.398438-.199218-.699219-.398437-1-.597656l-1.597656-1.203125c0-.097656-.101563-.097656-.199219-.199219l-1.601563-1.199218c-.300781-.199219-.5-.398438-.800781-.699219l-1.5-1.5c-.300781-.199219-.5-.402344-.699219-.699219l-1.300781-1.601562c-.199219-.199219-.300781-.398438-.5-.699219l-1.199219-1.800781c-.199218-.300782-.398437-.601563-.601562-1l-.898438-1.800782s0-.097656-.101562-.199218l-.898438-1.898438c-.199218-.300781-.300781-.601562-.398437-1l-.300781-1-.902344.398438c-.296875.101562-.597656.199218-.898438.300781l-1.898437.597656c-.203125.101563-.402344.101563-.601563.203125l-2 .5c-.300781.097656-.601562.097656-.898437.199219l-1.902344.300781c-.199219 0-.398437.097656-.597656.097656l-2.203125.101563c-.199219 0-.296875 0-.5 0-.296875 0-.699219 0-1-.101563l-4.097656-.5c-.5 0-1-.097656-1.5-.300781l-1.902344-.597656c-.199219-.101563-.296875-.101563-.5-.199219l-1.898438-.703125c-.199218-.097656-.5-.199219-.800781-.398437l-1.898437-1c-.199219-.101563-.402344-.199219-.601563-.300782l-1.800781-1.097656c-.199219-.101562-.398438-.203125-.597656-.402344l-1.699219-1.199218c-.402344-.300782-.800781-.601563-1.101563-.898438l-2.898437-2.902344c-.300781-.398437-.601563-.699218-.902344-1.097656l-1.199219-1.703125c-.101562-.199219-.300781-.398437-.398437-.597656l-1.101563-1.800781c-.101562-.300782-.300781-.5-.398437-.800782l-.902344-1.800781c-.097656-.199219-.199219-.398437-.300781-.597656l-.699219-1.902344c-.097656-.296875-.199219-.597656-.300781-1l-.5-2c0-.199219 0-.398437-.097656-.597656l-.402344-2.101563c0-.300781-.097656-.597656-.097656-.898437l-.101563-2s0 0 0-.101563h-.097656l-2 .101563c-.203125 0-.300781 0-.5 0-.300781 0-.601563 0-1-.101563l-3.902344-.5c-.300781 0-.699219-.097656-1-.199218l-1.898437-.5c-.402344-.101563-.699219-.199219-1.101563-.398438l-1.800781-.703125c-.199219 0-.296875-.097656-.5-.199219l-1.796875-.898437c-.300781-.199219-.703125-.402344-1-.601563l-1.703125-1.097656c-.296875-.203125-.597656-.402344-.898438-.601562l-1.398437-1.199219c-.101563-.101563-.203125-.199219-.300781-.300781l-1.5-1.300782c-.101563-.097656-.300782-.300781-.5-.5l-1.300782-1.5c-.300781-.300781-.601562-.699218-.898437-1.097656l-1.101563-1.703125c0-.097656-.101562-.296875-.199218-.398437l-1-1.699219c-.101563-.199219-.199219-.402344-.300782-.601563l-.898437-1.800781c-.101563-.398437-.300781-.699219-.402344-1.097656l-.597656-1.902344c-.101563-.199219-.101563-.296875-.203125-.5l-.5-1.898437c-.097656-.398438-.097656-.699219-.199219-1.101563l-.300781-2c-.097656-.199219-.097656-.296875-.097656-.5l-.101563-2c0-.296875 0-.699219 0-1l.101563-2.199219c0-.097656.097656-.300781.097656-.5l.300781-2c0-.398437.101563-.699218.199219-1l.5-2c0-.199218 0-.300781.101562-.5l.601563-2c.097656-.300781.199219-.699218.398437-1l.898438-1.898437c.101562-.101563.101562-.199219.203125-.402344l1-1.898437c.097656-.199219.199219-.398438.296875-.601563l1.101562-1.699219.101563-.097656c.097656-.101562.199219-.300781.296875-.402344 0-.097656.101562-.199218.203125-.300781l.097656-.097656 3.101563-4.199219c-3-5.902344-5.5-12-7.402344-18.203125-2.796875 2.203125-6.199219 3.703125-9.898438 4.300781-1.199218.199219-2.398437.300782-3.601562.300782-4.699219 0-9.097656-1.398438-12.898438-4.101563l-19.5-13.699219c-4.898437-3.398437-8-8.5-9-14.300781-1-5.796875.398438-11.597656 3.800782-16.398437l86.5-122.300782c7.097656-9.898437 20.898437-12.300781 30.800781-5.300781l19.5 13.902344c4.699219 3.398437 8 8.300781 9.097656 13.699219.800781 3.898437.5 7.898437-.898437 11.5 12.699218-.800782 25.5-.601563 38.199218.800781l9.5-6c4.199219-2.699219 9-4.101563 13.898438-4h.101562.101563l99.5 1.398437h.199219c.5 0 1 0 1.5-.097656l14.300781-2.5c-.101563-3.800781.898437-7.5 2.699219-10.902344 2.898437-5.199218 7.5-8.898437 13.199218-10.597656l22.898438-6.703125c5.601562-1.699219 11.601562-1 16.800781 1.800781 5.199219 2.902344 8.902344 7.5 10.601563 13.199219zm-19.699218 11.296875c2.800781-.898437 4.300781-3.699219 3.5-6.5l-42.800782-145.199219c-.398437-1.300781-1.300781-2.398437-2.5-3.097656-1.199218-.703125-2.601562-.800781-3.898437-.402344l-22.902344 6.699219c-1.300781.402344-2.398437 1.300781-3.097656 2.5-.703125 1.203125-.800781 2.601563-.402344 3.902344l1 3.300781s.101563.097656.101563.199219l41.699218 141.800781c.398438 1.296875 1.300782 2.398438 2.5 3.097656 1.101563.699219 2.601563.800782 3.898438.402344zm-48.902344-4-36.199219-123.097656-15.5 2.597656c-1.5.300781-3 .402344-4.398437.402344-.101563 0-.300782 0-.402344 0l-99.5-1.300781c-1.699219 0-3.296875.5-4.699219 1.398437l-27 17.203125c-1.097656.796875-2 1.699219-2.699219 2.796875l-17.800781 29.101563c0 .101562 0 .101562-.097656.199218l-.101563.101563c-2.101562 3.199219-1.898437 7.300781.398438 10.199219 2.203125 2.800781 6 3.898437 9.5 2.699218.101562 0 .101562-.097656.203125-.097656 4-1.5 7.597656-3.800781 10.398437-6.800781l.199219-.199219c.101563-.101562.101563-.101562.199219-.203125l21.703125-20.5c0-.097656.097656-.097656.199219-.199219 0-.097656.097656-.097656.199218-.199218 0-.101563.101563-.101563.199219-.199219l.101563-.101563c8.800781-7.097656 21.398437-7.5 30.699218-.898437l119.300782 84.597656.097656.101563s0 .101562.101562.101562l1.699219 1.296875c.199219.203125.402344.300781.601563.5l1.699218 1.5c3.601563.101563 7.199219-.097656 10.898438-1zm-152.199219 108.203125c1.5-5.703125-1-11.902344-6.199219-15-5-2.902344-11.5-2.101562-15.699218 2l-9.300782 11.296875c-2.300781 6.101563 0 13 5.699219 16.402344 6 3.5 13.902344 2 18-3.5l5.402344-7.199219c.199219-.300781.398437-.703125.699219-1.101562.597656-.800782 1-1.601563 1.300781-2.5 0-.101563 0-.199219.097656-.398438zm-30.800781-34v-1.203125l-.199219-1.398437-.300781-1.601563-.296875-1.296875-.402344-1.101562-.597656-1.199219-.703125-1.101563-.699219-1-.597656-.699218-1-.898438-1-.800781-1.101563-.699219-.800781-.402344-1.097656-.300781-1.402344-.296875-1.097656-.203125h-1.300781l-1.601563.101563-1.5.199218-1.097656.300782-1.402344.5-1.398437.601562-1.402344.796875-1.199219.800781-1.199219 1-1.300781 1.199219-1.097656 1.203125-1.203125 1.398438-13 17.101562-.296875.597656-.5 1.5-.402344 1.5-.300781 1.5-.097656 1.300782.097656 1.5.203125 1.699218.296875 1.300782.300781 1.101562.601563 1.398438.597656 1.199218.601562 1 .699219.902344.699219.699219 1 .800781 1 .796875 1 .5 1.203125.5 1.097656.402344 1.199219.199219 1.300781.199218h1.199219l1.300781-.199218 1.402344-.300782 1.398437-.398437 1.398438-.5 1.402344-.699219 1.199218-.703125 1.199219-.898437 1.300781-1.101563 1.199219-1.199219 1.101563-1.199218 1-1.398438c0-.101562.097656-.203125.199218-.300781 0-.101563 0-.101563.101563-.199219l10.199219-12.300781.800781-1.300781.898437-1.5.800782-1.300782.5-1.5.5-1.800781.398437-1.5zm-34.699219-27.902344v-1.097656l-.199219-.902344-.800781-2.898437-.5-1.101563-.597656-1-.703125-1-.898438-1.097656-.898437-.902344-1-.800781-1-.699219-1.203125-.597656-1.296875-.5-1.300781-.402344-1.300782-.300781-1.101562-.199219h-1.097656l-1.300782.199219-1.300781.203125-1 .296875-1.199219.5-1 .5-1.101562.800781-1.097656.902344-.902344.796875-.199219.203125c-.097656.199219-.199219.398438-.398437.597656l-2.902344 3.902344-19.296875 25.699219-.601563.898437-.398437 1-.402344 1.199219-.398437 1.402344-.199219 1.199219-.101563 1.101562.101563 1.097656.199219 1.300782.300781 1.300781.398437 1.199219.5 1.101562.699219 1.199219.601563.898437 1.898437 1.902344.902344.597656 1.296875.800782 1.300781.601562 1.300781.5 1 .296875 2.601563.300781 1.199219-.097656 1.199218-.203125 1.300782-.296875 1.199218-.402344 1.101563-.5.898437-.597656 1.101563-.800781.699219-.699219.800781-.902344 1.097656-1.398437 3.902344-5.199219c.296875-.402344.597656-.800781.898437-1.203125l13.101563-17.199219 3.296875-4.699218.902344-1.398438.800781-.703125.398437-1.097656.398438-1.199219.203125-1.101562zm-16.398437-179.898437c1.800781-2.5.5-5.101563-1.601563-6.601563l-19.5-13.898437c-2.300781-1.601563-5.5-1.101563-7.199219 1.300781l-86.398437 122.097656c-.800781 1.101563-1.101563 2.5-.902344 3.902344.300781 1.398438 1 2.5 2.101563 3.296875l19.5 13.800781c1.097656.902344 2.597656 1.199219 4 1 1.300781-.300781 2.5-1 3.300781-2.097656l82.199219-116.5c.097656-.203125.300781-.5.5-.703125zm-20.300782 156.199219-.101562-1.300782-.199219-1.597656-.199219-1.300781-.398437-1.101563-.5-1.097656-.5-.902344-.703125-1-.796875-.898437-.800781-.800781-1-.800782-1-.699218-1-.5-.902344-.398438-1.097656-.300781-1.402344-.300781-1.097656-.101563-1.199219.101563-1.402344.199218-1.398437.300782-1.300782.398437-1.101562.402344-1 .5-1.199219.800781-1.300781 1-1.097656 1-1 1.097656-1 1.300782-7.699219 10.398437c-.300781.5-.703125.902344-1.101563 1.402344l-5.5 7.5-.699218 1.199219-.699219 1.5-.601563 1.300781-.398437 1.300781-.300781 1.398438-.199219 1.300781-.101563 1.398437.101563 1.300782.199219 1.300781.300781 1.199219.398437 1.199218.5 1 .699219 1.199219.601563.902344.597656.699219 1 1 .902344.800781.800781.5 1.097656.5 1.101563.398437.898437.199219 2.601563.300781 1-.097656 1.597656-.203125 1.203125-.296875 1.296875-.402344 1.300781-.597656 1.300781-.703125 1-.597656 1.101563-.902344 1.097656-1 1.300781-1.398437 14.601563-19.800782 1-1.5.699219-1.097656.5-1.300781.5-1.402344.300781-1.398437.296875-1.300782zm0 0"></path></svg>